<?xml version="1.0" encoding="utf-8"?>
<!-- Generator: Adobe Illustrator 16.0.0, SVG Export Plug-In . SVG Version: 6.00 Build 0)  -->
<!DOCTYPE svg PUBLIC "-//W3C//DTD SVG 1.1//EN" "http://www.w3.org/Graphics/SVG/1.1/DTD/svg11.dtd">
<svg version="1.1" id="Слой_1" xmlns="http://www.w3.org/2000/svg" xmlns:xlink="http://www.w3.org/1999/xlink" x="0px" y="0px"
	 width="39.1px" height="39.1px" viewBox="0 0 39.1 39.1" style="enable-background:new 0 0 39.1 39.1;" xml:space="preserve">
<style type="text/css">
<![CDATA[
	.st0{fill:#FFFFFF;}
	.st1{fill-rule:evenodd;clip-rule:evenodd;fill:#FFFFFF;}
]]>
</style>
<g>
	<g>
		<circle cx="19.55" cy="19.55" r="19.55"/>
		<g>
			<circle class="st0" cx="24.82" cy="14.23" r="1.19"/>
			<path class="st0" d="M19.55,14.57c-2.75,0-4.98,2.24-4.98,4.98c0,2.75,2.24,4.98,4.98,4.98c2.75,0,4.98-2.24,4.98-4.98
				C24.53,16.8,22.3,14.57,19.55,14.57z M19.55,22.74c-1.76,0-3.19-1.43-3.19-3.19s1.43-3.19,3.19-3.19c1.76,0,3.19,1.43,3.19,3.19
				S21.31,22.74,19.55,22.74z"/>
			<path class="st0" d="M23.51,29.67h-8.08c-3.35,0-6.08-2.73-6.08-6.08v-8.08c0-3.35,2.73-6.08,6.08-6.08h8.08
				c3.35,0,6.08,2.73,6.08,6.08v8.08C29.58,26.94,26.86,29.67,23.51,29.67z M15.43,11.34c-2.3,0-4.17,1.87-4.17,4.17v8.08
				c0,2.3,1.87,4.17,4.17,4.17h8.08c2.3,0,4.17-1.87,4.17-4.17v-8.08c0-2.3-1.87-4.17-4.17-4.17H15.43z"/>
		</g>
	</g>
</g>
</svg>
