<?xml version="1.0" encoding="utf-8"?>
<!-- Generator: Adobe Illustrator 16.0.0, SVG Export Plug-In . SVG Version: 6.00 Build 0)  -->
<!DOCTYPE svg PUBLIC "-//W3C//DTD SVG 1.1//EN" "http://www.w3.org/Graphics/SVG/1.1/DTD/svg11.dtd">
<svg version="1.1" id="Слой_1" xmlns="http://www.w3.org/2000/svg" xmlns:xlink="http://www.w3.org/1999/xlink" x="0px" y="0px"
	 width="39.1px" height="39.1px" viewBox="0 0 39.1 39.1" style="enable-background:new 0 0 39.1 39.1;" xml:space="preserve">
<style type="text/css">
<![CDATA[
	.st0{fill:#FFFFFF;}
	.st1{fill-rule:evenodd;clip-rule:evenodd;fill:#FFFFFF;}
]]>
</style>
<g>
	<g>
		<circle cx="19.55" cy="19.55" r="19.55"/>
		<path class="st0" d="M8.1,19.36c0,0,9.77-4.01,13.15-5.42c1.3-0.56,5.7-2.37,5.7-2.37s2.03-0.79,1.86,1.13
			c-0.06,0.79-0.51,3.56-0.96,6.55c-0.68,4.24-1.41,8.86-1.41,8.86s-0.11,1.3-1.07,1.52s-2.54-0.79-2.82-1.02
			c-0.23-0.17-4.23-2.71-5.7-3.95c-0.39-0.34-0.85-1.02,0.06-1.81c2.03-1.86,4.46-4.18,5.93-5.65c0.68-0.68,1.36-2.26-1.47-0.34
			c-4.01,2.77-7.96,5.36-7.96,5.36s-0.9,0.56-2.6,0.06c-1.69-0.51-3.67-1.19-3.67-1.19S5.78,20.26,8.1,19.36L8.1,19.36z"/>
	</g>
</g>
</svg>
