<?xml version="1.0" encoding="utf-8"?>
<!-- Generator: Adobe Illustrator 16.0.0, SVG Export Plug-In . SVG Version: 6.00 Build 0)  -->
<!DOCTYPE svg PUBLIC "-//W3C//DTD SVG 1.1//EN" "http://www.w3.org/Graphics/SVG/1.1/DTD/svg11.dtd">
<svg version="1.1" id="Слой_1" xmlns="http://www.w3.org/2000/svg" xmlns:xlink="http://www.w3.org/1999/xlink" x="0px" y="0px"
	 width="39.1px" height="39.1px" viewBox="0 0 39.1 39.1" style="enable-background:new 0 0 39.1 39.1;" xml:space="preserve">
<style type="text/css">
<![CDATA[
	.st0{fill:#FFFFFF;}
	.st1{fill-rule:evenodd;clip-rule:evenodd;fill:#FFFFFF;}
]]>
</style>
<g>
	<g>
		<circle cx="19.55" cy="19.55" r="19.55"/>
		<path class="st0" d="M30.77,14.5c0.17-0.57,0-0.99-0.82-0.99h-2.7c-0.69,0-1,0.36-1.17,0.76c0,0-1.37,3.35-3.32,5.52
			c-0.63,0.63-0.91,0.83-1.26,0.83c-0.17,0-0.42-0.2-0.42-0.77V14.5c0-0.69-0.2-0.99-0.77-0.99h-4.25c-0.43,0-0.69,0.32-0.69,0.62
			c0,0.65,0.97,0.8,1.07,2.63v3.98c0,0.87-0.16,1.03-0.5,1.03c-0.92,0-3.14-3.36-4.46-7.21c-0.26-0.75-0.52-1.05-1.21-1.05h-2.7
			c-0.77,0-0.93,0.36-0.93,0.76c0,0.72,0.92,4.26,4.26,8.96c2.23,3.2,5.38,4.94,8.24,4.94c1.72,0,1.93-0.39,1.93-1.05V24.7
			c0-0.77,0.16-0.93,0.71-0.93c0.4,0,1.09,0.2,2.69,1.75c1.83,1.83,2.13,2.65,3.16,2.65h2.7c0.77,0,1.16-0.39,0.93-1.15
			c-0.24-0.76-1.12-1.86-2.28-3.17c-0.63-0.74-1.57-1.54-1.86-1.95c-0.4-0.52-0.29-0.74,0-1.2C27.14,20.71,30.43,16.08,30.77,14.5
			L30.77,14.5z"/>
	</g>
</g>
</svg>
