<?xml version="1.0" encoding="utf-8"?>
<!-- Generator: Adobe Illustrator 16.0.0, SVG Export Plug-In . SVG Version: 6.00 Build 0)  -->
<!DOCTYPE svg PUBLIC "-//W3C//DTD SVG 1.1//EN" "http://www.w3.org/Graphics/SVG/1.1/DTD/svg11.dtd">
<svg version="1.1" id="Слой_1" xmlns="http://www.w3.org/2000/svg" xmlns:xlink="http://www.w3.org/1999/xlink" x="0px" y="0px"
	 width="39.1px" height="39.1px" viewBox="0 0 39.1 39.1" style="enable-background:new 0 0 39.1 39.1;" xml:space="preserve">
<style type="text/css">
<![CDATA[
	.st0{fill:#FFFFFF;}
	.st1{fill-rule:evenodd;clip-rule:evenodd;fill:#FFFFFF;}
]]>
</style>
<g>
	<g>
		<circle cx="19.55" cy="19.55" r="19.55"/>
		<g>
			<path class="st0" d="M9.49,29.63l1.45-5.39c-0.82-1.48-1.25-3.13-1.25-4.81c0-5.49,4.47-9.96,9.96-9.96s9.96,4.47,9.96,9.96
				c0,5.49-4.47,9.96-9.96,9.96c-1.65,0-3.28-0.42-4.73-1.21L9.49,29.63z M15.18,26.16l0.34,0.2c1.25,0.75,2.68,1.14,4.12,1.14
				c4.45,0,8.08-3.62,8.08-8.08s-3.62-8.08-8.08-8.08s-8.08,3.62-8.08,8.08c0,1.47,0.41,2.92,1.18,4.19l0.21,0.34l-0.81,3.01
				L15.18,26.16z"/>
			<path class="st1" d="M23.35,20.81c-0.41-0.25-0.94-0.52-1.43-0.32c-0.37,0.15-0.61,0.73-0.85,1.03c-0.12,0.15-0.27,0.18-0.46,0.1
				c-1.39-0.55-2.46-1.48-3.22-2.76c-0.13-0.2-0.11-0.36,0.05-0.54c0.23-0.27,0.52-0.58,0.59-0.95c0.06-0.37-0.11-0.8-0.26-1.13
				c-0.2-0.42-0.41-1.02-0.83-1.25c-0.38-0.22-0.89-0.1-1.24,0.18c-0.59,0.48-0.88,1.24-0.87,1.99c0,0.21,0.03,0.43,0.08,0.63
				c0.12,0.49,0.35,0.96,0.61,1.4c0.19,0.33,0.4,0.65,0.63,0.96c0.74,1.01,1.67,1.89,2.74,2.54c0.54,0.33,1.11,0.62,1.71,0.81
				c0.67,0.22,1.27,0.45,1.99,0.31c0.76-0.14,1.5-0.61,1.8-1.34c0.09-0.21,0.13-0.46,0.08-0.68C24.37,21.32,23.73,21.04,23.35,20.81
				z"/>
		</g>
	</g>
</g>
</svg>
